<svg xmlns="http://www.w3.org/2000/svg" xmlns:xlink="http://www.w3.org/1999/xlink" xmlns:lucid="lucid" width="1360" height="1760"><g transform="translate(0 0)" lucid:page-tab-id="0_0"><path d="M0 0h1360v1760H0z" fill="#fff"/><path d="M528 320c17.67 0 32 17.9 32 40s-14.33 40-32 40h-96c-17.67 0-32-17.9-32-40s14.33-40 32-40z" stroke="#000" stroke-width="2" fill="#ffbbb1"/><use xlink:href="#a" transform="matrix(1,0,0,1,405,325) translate(32.62499999999999 38.6)"/><path d="M320 960h320v120H320z" stroke="#000" stroke-width="2" fill="#99d5ca"/><use xlink:href="#b" transform="matrix(1,0,0,1,325,964.9999999999998) translate(69.64999999999999 37)"/><use xlink:href="#c" transform="matrix(1,0,0,1,325,964.9999999999998) translate(141.55 37)"/><use xlink:href="#d" transform="matrix(1,0,0,1,325,964.9999999999998) translate(4.974999999999994 58.6)"/><use xlink:href="#e" transform="matrix(1,0,0,1,325,964.9999999999998) translate(68.825 58.6)"/><use xlink:href="#f" transform="matrix(1,0,0,1,325,964.9999999999998) translate(84.325 58.6)"/><use xlink:href="#g" transform="matrix(1,0,0,1,325,964.9999999999998) translate(171.125 58.6)"/><use xlink:href="#h" transform="matrix(1,0,0,1,325,964.9999999999998) translate(182.075 58.6)"/><use xlink:href="#i" transform="matrix(1,0,0,1,325,964.9999999999998) translate(228.025 58.6)"/><use xlink:href="#j" transform="matrix(1,0,0,1,325,964.9999999999998) translate(240.025 58.6)"/><use xlink:href="#k" transform="matrix(1,0,0,1,325,964.9999999999998) translate(270.025 58.6)"/><use xlink:href="#l" transform="matrix(1,0,0,1,325,964.9999999999998) translate(280.025 58.6)"/><use xlink:href="#m" transform="matrix(1,0,0,1,325,964.9999999999998) translate(83.64999999999999 80.20000000000002)"/><use xlink:href="#n" transform="matrix(1,0,0,1,325,964.9999999999998) translate(144.54999999999998 80.20000000000002)"/><path d="M528 1480c17.67 0 32 17.9 32 40s-14.33 40-32 40h-96c-17.67 0-32-17.9-32-40s14.33-40 32-40z" stroke="#000" stroke-width="2" fill="#ffbbb1"/><use xlink:href="#a" transform="matrix(1,0,0,1,405,1485) translate(32.62499999999999 38.6)"/><path d="M340 500.92L620 481v120H340z" stroke="#000" stroke-width="2" fill="#c7e8ac"/><use xlink:href="#o" transform="matrix(1,0,0,1,345,506) translate(107.05 22.999999999999993)"/><use xlink:href="#p" transform="matrix(1,0,0,1,345,506) translate(16.818287037037038 47.266666666666666)"/><use xlink:href="#q" transform="matrix(1,0,0,1,345,506) translate(22.744212962962965 47.266666666666666)"/><use xlink:href="#r" transform="matrix(1,0,0,1,345,506) translate(99.55671296296296 47.266666666666666)"/><use xlink:href="#s" transform="matrix(1,0,0,1,345,506) translate(157.16608796296296 47.266666666666666)"/><use xlink:href="#t" transform="matrix(1,0,0,1,345,506) translate(72.58984375 72.86666666666667)"/><path d="M160 62.9h1040v194.2H160z" stroke="#000" stroke-width="2" fill="#fff"/><use xlink:href="#u" transform="matrix(1,0,0,1,165,67.91111111111111) translate(295.6666666666667 62.27777777777778)"/><use xlink:href="#v" transform="matrix(1,0,0,1,165,67.91111111111111) translate(360.72 125.74444444444444)"/><use xlink:href="#w" transform="matrix(1,0,0,1,165,67.91111111111111) translate(535.24 125.74444444444444)"/><use xlink:href="#x" transform="matrix(1,0,0,1,165,67.91111111111111) translate(347.5911111111111 174.63333333333333)"/><use xlink:href="#y" transform="matrix(1,0,0,1,165,67.91111111111111) translate(539.0488888888889 174.63333333333333)"/><use xlink:href="#z" transform="matrix(1,0,0,1,165,67.91111111111111) translate(613.3422222222223 174.63333333333333)"/><path d="M480 700l140 90-140 90-140-90z" stroke="#000" stroke-width="2" fill="#ffdba9"/><use xlink:href="#A" transform="matrix(1,0,0,1,345,705) translate(104.5 77.8)"/><use xlink:href="#B" transform="matrix(1,0,0,1,345,705) translate(33.099999999999994 99.4)"/><use xlink:href="#C" transform="matrix(1,0,0,1,345,705) translate(74.05 99.4)"/><use xlink:href="#D" transform="matrix(1,0,0,1,345,705) translate(100.05 99.4)"/><use xlink:href="#C" transform="matrix(1,0,0,1,345,705) translate(180.9 99.4)"/><use xlink:href="#E" transform="matrix(1,0,0,1,345,705) translate(206.9 99.4)"/><path d="M936 730h266c21 0 38 26.86 38 60s-17 60-38 60H936l-76-60z" stroke="#000" stroke-width="2" fill="#c1e4f7"/><use xlink:href="#F" transform="matrix(1,0,0,1,865,735) translate(166.55 37)"/><use xlink:href="#G" transform="matrix(1,0,0,1,865,735) translate(68.35 58.6)"/><use xlink:href="#H" transform="matrix(1,0,0,1,865,735) translate(110.05 58.6)"/><use xlink:href="#I" transform="matrix(1,0,0,1,865,735) translate(176 58.6)"/><use xlink:href="#J" transform="matrix(1,0,0,1,865,735) translate(187.35 58.6)"/><use xlink:href="#K" transform="matrix(1,0,0,1,865,735) translate(202.85 58.6)"/><use xlink:href="#L" transform="matrix(1,0,0,1,865,735) translate(40.39999999999998 80.20000000000002)"/><use xlink:href="#M" transform="matrix(1,0,0,1,865,735) translate(87.34999999999998 80.20000000000002)"/><use xlink:href="#N" transform="matrix(1,0,0,1,865,735) translate(131.29999999999998 80.20000000000002)"/><use xlink:href="#O" transform="matrix(1,0,0,1,865,735) translate(182.25 80.20000000000002)"/><use xlink:href="#P" transform="matrix(1,0,0,1,865,735) translate(223.15 80.20000000000002)"/><use xlink:href="#Q" transform="matrix(1,0,0,1,865,735) translate(264.1 80.20000000000002)"/><use xlink:href="#J" transform="matrix(1,0,0,1,865,735) translate(284.1 80.20000000000002)"/><use xlink:href="#E" transform="matrix(1,0,0,1,865,735) translate(299.6 80.20000000000002)"/><path d="M360 1200h280c22.1 0 40 40.92 40 91.4 0 50.48-17.9 91.4-40 91.4H360l-80-91.4z" stroke="#000" stroke-width="2" fill="#c1e4f7"/><g><use xlink:href="#R" transform="matrix(1,0,0,1,285,1205) translate(177.55 57.69999999999999)"/><use xlink:href="#S" transform="matrix(1,0,0,1,285,1205) translate(28.67500000000001 79.3)"/><use xlink:href="#T" transform="matrix(1,0,0,1,285,1205) translate(115.87500000000001 79.3)"/><use xlink:href="#U" transform="matrix(1,0,0,1,285,1205) translate(217.72500000000002 79.3)"/><use xlink:href="#I" transform="matrix(1,0,0,1,285,1205) translate(235.675 79.3)"/><use xlink:href="#J" transform="matrix(1,0,0,1,285,1205) translate(247.025 79.3)"/><use xlink:href="#c" transform="matrix(1,0,0,1,285,1205) translate(262.525 79.3)"/><use xlink:href="#d" transform="matrix(1,0,0,1,285,1205) translate(48.849999999999994 100.9)"/><use xlink:href="#T" transform="matrix(1,0,0,1,285,1205) translate(112.7 100.9)"/><use xlink:href="#U" transform="matrix(1,0,0,1,285,1205) translate(214.55 100.9)"/><use xlink:href="#I" transform="matrix(1,0,0,1,285,1205) translate(232.5 100.9)"/><use xlink:href="#J" transform="matrix(1,0,0,1,285,1205) translate(243.85 100.9)"/><use xlink:href="#V" transform="matrix(1,0,0,1,285,1205) translate(259.35 100.9)"/><use xlink:href="#W" transform="matrix(1,0,0,1,285,1205) translate(195 122.5)"/></g><path d="M480 401v70.72" stroke="#000" stroke-width="2" fill="none"/><path d="M481 401h-2v-1h2zM480 486.72l-4.64-14.26h9.28z"/><path d="M480 489.96l-6-18.5h12zm-3.26-16.5L480 483.5l3.26-10.04z"/><path d="M480 602v78.58" stroke="#000" stroke-width="2" fill="none"/><path d="M481 602h-2v-1h2zM480 695.58l-4.64-14.27h9.28z"/><path d="M480 698.8l-6-18.5h12zm-3.26-16.5l3.26 10.04 3.26-10.03zM728.64 791h-106.8v-2h106.8zm111.5 0H751.6v-2h88.55z"/><path d="M621.85 791h-3v-.26L620 790l-1.15-.74V789h3zM855.15 790l-14.27 4.64v-9.28z"/><path d="M858.4 790l-18.52 6v-12zm-16.52 3.26L851.9 790l-10.02-3.26z"/><g><use xlink:href="#X" transform="matrix(1,0,0,1,728.642714,779.2) translate(0 14.4)"/></g><path d="M481 940.76h-2v-9.87h2zm0-31.47h-2v-28.1h2z"/><path d="M481 881.2h-2v-1.84l1 .64 1-.64zM480 955.76l-4.64-14.26h9.28z"/><path d="M480 959l-6-18.5h12zm-3.26-16.5l3.26 10.03 3.26-10.03z"/><g><use xlink:href="#Y" transform="matrix(1,0,0,1,465.325,909.294404) translate(0 14.4)"/></g><path d="M480 1081v99.76" stroke="#000" stroke-width="2" fill="none"/><path d="M481 1081h-2v-1h2zM480 1195.76l-4.64-14.26h9.28z"/><path d="M480 1199l-6-18.5h12zm-3.26-16.5l3.26 10.03 3.26-10.03z"/><path d="M480 1383.8v76.96" stroke="#000" stroke-width="2" fill="none"/><path d="M481 1383.8h-2v-1h2zM480 1475.76l-4.64-14.26h9.28z"/><path d="M480 1479l-6-18.5h12zm-3.26-16.5l3.26 10.03 3.26-10.03z"/><path d="M1050 729V541H639.24" stroke="#000" stroke-width="2" fill="none"/><path d="M1051 730h-2v-1h2zM638.5 545.64L624.24 541l14.26-4.64z"/><path d="M639.5 547l-18.5-6 18.5-6zm-12.03-6l10.03 3.26v-6.52z"/><defs><path d="M127-220V0H93v-220H8v-28h204v28h-85" id="Z"/><path d="M100-194c63 0 86 42 84 106H49c0 40 14 67 53 68 26 1 43-12 49-29l28 8c-11 28-37 45-77 45C44 4 14-33 15-96c1-61 26-98 85-98zm52 81c6-60-76-77-97-28-3 7-6 17-6 28h103" id="aa"/><path d="M114-163C36-179 61-72 57 0H25l-1-190h30c1 12-1 29 2 39 6-27 23-49 58-41v29" id="ab"/><path d="M210-169c-67 3-38 105-44 169h-31v-121c0-29-5-50-35-48C34-165 62-65 56 0H25l-1-190h30c1 10-1 24 2 32 10-44 99-50 107 0 11-21 27-35 58-36 85-2 47 119 55 194h-31v-121c0-29-5-49-35-48" id="ac"/><path d="M24-231v-30h32v30H24zM24 0v-190h32V0H24" id="ad"/><path d="M117-194c89-4 53 116 60 194h-32v-121c0-31-8-49-39-48C34-167 62-67 57 0H25l-1-190h30c1 10-1 24 2 32 11-22 29-35 61-36" id="ae"/><path d="M141-36C126-15 110 5 73 4 37 3 15-17 15-53c-1-64 63-63 125-63 3-35-9-54-41-54-24 1-41 7-42 31l-33-3c5-37 33-52 76-52 45 0 72 20 72 64v82c-1 20 7 32 28 27v20c-31 9-61-2-59-35zM48-53c0 20 12 33 32 33 41-3 63-29 60-74-43 2-92-5-92 41" id="af"/><path d="M59-47c-2 24 18 29 38 22v24C64 9 27 4 27-40v-127H5v-23h24l9-43h21v43h35v23H59v120" id="ag"/><path d="M100-194c62-1 85 37 85 99 1 63-27 99-86 99S16-35 15-95c0-66 28-99 85-99zM99-20c44 1 53-31 53-75 0-43-8-75-51-75s-53 32-53 75 10 74 51 75" id="ah"/><g id="a"><use transform="matrix(0.05,0,0,0.05,0,0)" xlink:href="#Z"/><use transform="matrix(0.05,0,0,0.05,8.950000000000001,0)" xlink:href="#aa"/><use transform="matrix(0.05,0,0,0.05,18.950000000000003,0)" xlink:href="#ab"/><use transform="matrix(0.05,0,0,0.05,24.900000000000002,0)" xlink:href="#ac"/><use transform="matrix(0.05,0,0,0.05,39.85,0)" xlink:href="#ad"/><use transform="matrix(0.05,0,0,0.05,43.800000000000004,0)" xlink:href="#ae"/><use transform="matrix(0.05,0,0,0.05,53.800000000000004,0)" xlink:href="#af"/><use transform="matrix(0.05,0,0,0.05,63.800000000000004,0)" xlink:href="#ag"/><use transform="matrix(0.05,0,0,0.05,68.80000000000001,0)" xlink:href="#ah"/><use transform="matrix(0.05,0,0,0.05,78.80000000000001,0)" xlink:href="#ab"/></g><path d="M96-169c-40 0-48 33-48 73s9 75 48 75c24 0 41-14 43-38l32 2c-6 37-31 61-74 61-59 0-76-41-82-99-10-93 101-131 147-64 4 7 5 14 7 22l-32 3c-4-21-16-35-41-35" id="ai"/><path d="M108 0H70L1-190h34L89-25l56-165h34" id="aj"/><path d="M135-143c-3-34-86-38-87 0 15 53 115 12 119 90S17 21 10-45l28-5c4 36 97 45 98 0-10-56-113-15-118-90-4-57 82-63 122-42 12 7 21 19 24 35" id="ak"/><g id="b"><use transform="matrix(0.05,0,0,0.05,0,0)" xlink:href="#ab"/><use transform="matrix(0.05,0,0,0.05,5.95,0)" xlink:href="#aa"/><use transform="matrix(0.05,0,0,0.05,15.949999999999998,0)" xlink:href="#ai"/><use transform="matrix(0.05,0,0,0.05,24.95,0)" xlink:href="#aa"/><use transform="matrix(0.05,0,0,0.05,34.95,0)" xlink:href="#ad"/><use transform="matrix(0.05,0,0,0.05,38.900000000000006,0)" xlink:href="#aj"/><use transform="matrix(0.05,0,0,0.05,47.900000000000006,0)" xlink:href="#aa"/><use transform="matrix(0.05,0,0,0.05,57.900000000000006,0)" xlink:href="#ak"/></g><path d="M63-220v92h138v28H63V0H30v-248h175v28H63" id="al"/><path d="M106-169C34-169 62-67 57 0H25v-261h32l-1 103c12-21 28-36 61-36 89 0 53 116 60 194h-32v-121c2-32-8-49-39-48" id="am"/><path d="M185-189c-5-48-123-54-124 2 14 75 158 14 163 119 3 78-121 87-175 55-17-10-28-26-33-46l33-7c5 56 141 63 141-1 0-78-155-14-162-118-5-82 145-84 179-34 5 7 8 16 11 25" id="an"/><g id="c"><use transform="matrix(0.05,0,0,0.05,0,0)" xlink:href="#al"/><use transform="matrix(0.05,0,0,0.05,10.950000000000001,0)" xlink:href="#af"/><use transform="matrix(0.05,0,0,0.05,20.950000000000003,0)" xlink:href="#ab"/><use transform="matrix(0.05,0,0,0.05,26.900000000000002,0)" xlink:href="#aa"/><use transform="matrix(0.05,0,0,0.05,36.900000000000006,0)" xlink:href="#ae"/><use transform="matrix(0.05,0,0,0.05,46.900000000000006,0)" xlink:href="#am"/><use transform="matrix(0.05,0,0,0.05,56.900000000000006,0)" xlink:href="#aa"/><use transform="matrix(0.05,0,0,0.05,66.9,0)" xlink:href="#ad"/><use transform="matrix(0.05,0,0,0.05,70.85000000000001,0)" xlink:href="#ag"/><use transform="matrix(0.05,0,0,0.05,75.85000000000001,0)" xlink:href="#an"/><use transform="matrix(0.05,0,0,0.05,87.85000000000001,0)" xlink:href="#ag"/><use transform="matrix(0.05,0,0,0.05,92.85000000000001,0)" xlink:href="#ab"/></g><path d="M212-179c-10-28-35-45-73-45-59 0-87 40-87 99 0 60 29 101 89 101 43 0 62-24 78-52l27 14C228-24 195 4 139 4 59 4 22-46 18-125c-6-104 99-153 187-111 19 9 31 26 39 46" id="ao"/><path d="M24 0v-261h32V0H24" id="ap"/><path d="M84 4C-5 8 30-112 23-190h32v120c0 31 7 50 39 49 72-2 45-101 50-169h31l1 190h-30c-1-10 1-25-2-33-11 22-28 36-60 37" id="aq"/><g id="d"><use transform="matrix(0.05,0,0,0.05,0,0)" xlink:href="#ao"/><use transform="matrix(0.05,0,0,0.05,12.950000000000001,0)" xlink:href="#aa"/><use transform="matrix(0.05,0,0,0.05,22.950000000000003,0)" xlink:href="#ap"/><use transform="matrix(0.05,0,0,0.05,26.900000000000002,0)" xlink:href="#ak"/><use transform="matrix(0.05,0,0,0.05,35.900000000000006,0)" xlink:href="#ad"/><use transform="matrix(0.05,0,0,0.05,39.85000000000001,0)" xlink:href="#aq"/><use transform="matrix(0.05,0,0,0.05,49.85000000000001,0)" xlink:href="#ak"/></g><path d="M18-150v-26h174v26H18zm0 90v-26h174v26H18" id="ar"/><use transform="matrix(0.05,0,0,0.05,0,0)" xlink:href="#ar" id="e"/><path d="M87 75C49 33 22-17 22-94c0-76 28-126 65-167h31c-38 41-64 92-64 168S80 34 118 75H87" id="as"/><g id="f"><use transform="matrix(0.05,0,0,0.05,0,0)" xlink:href="#as"/><use transform="matrix(0.05,0,0,0.05,5.95,0)" xlink:href="#al"/><use transform="matrix(0.05,0,0,0.05,16.900000000000002,0)" xlink:href="#af"/><use transform="matrix(0.05,0,0,0.05,26.900000000000002,0)" xlink:href="#ab"/><use transform="matrix(0.05,0,0,0.05,32.85,0)" xlink:href="#aa"/><use transform="matrix(0.05,0,0,0.05,42.85,0)" xlink:href="#ae"/><use transform="matrix(0.05,0,0,0.05,52.85,0)" xlink:href="#am"/><use transform="matrix(0.05,0,0,0.05,62.85,0)" xlink:href="#aa"/><use transform="matrix(0.05,0,0,0.05,72.85,0)" xlink:href="#ad"/><use transform="matrix(0.05,0,0,0.05,76.8,0)" xlink:href="#ag"/></g><path d="M16-82v-28h88v28H16" id="at"/><use transform="matrix(0.05,0,0,0.05,0,0)" xlink:href="#at" id="g"/><path d="M126-127c33 6 58 20 58 59 0 88-139 92-164 29-3-8-5-16-6-25l32-3c6 27 21 44 54 44 32 0 52-15 52-46 0-38-36-46-79-43v-28c39 1 72-4 72-42 0-27-17-43-46-43-28 0-47 15-49 41l-32-3c6-42 35-63 81-64 48-1 79 21 79 65 0 36-21 52-52 59" id="au"/><path d="M101-251c82-7 93 87 43 132L82-64C71-53 59-42 53-27h129V0H18c2-99 128-94 128-182 0-28-16-43-45-43s-46 15-49 41l-32-3c6-41 34-60 81-64" id="av"/><path d="M33 0v-38h34V0H33" id="aw"/><path d="M101-251c68 0 85 55 85 127S166 4 100 4C33 4 14-52 14-124c0-73 17-127 87-127zm-1 229c47 0 54-49 54-102s-4-102-53-102c-51 0-55 48-55 102 0 53 5 102 54 102" id="ax"/><path d="M33-261c38 41 65 92 65 168S71 34 33 75H2C39 34 66-17 66-93S39-220 2-261h31" id="ay"/><g id="h"><use transform="matrix(0.05,0,0,0.05,0,0)" xlink:href="#au"/><use transform="matrix(0.05,0,0,0.05,10,0)" xlink:href="#av"/><use transform="matrix(0.05,0,0,0.05,20,0)" xlink:href="#aw"/><use transform="matrix(0.05,0,0,0.05,25,0)" xlink:href="#ax"/><use transform="matrix(0.05,0,0,0.05,35,0)" xlink:href="#ay"/></g><path d="M80-196l47-18 7 23-49 13 32 44-20 13-27-46-27 45-21-12 33-44-49-13 8-23 47 19-2-53h23" id="az"/><use transform="matrix(0.05,0,0,0.05,0,0)" xlink:href="#az" id="i"/><path d="M54-142c48-35 137-8 131 61C196 18 31 33 14-55l32-4c7 23 22 37 52 37 35-1 51-22 54-58 4-55-73-65-99-34H22l8-134h141v27H59" id="aA"/><g id="j"><use transform="matrix(0.05,0,0,0.05,0,0)" xlink:href="#aA"/><use transform="matrix(0.05,0,0,0.05,10,0)" xlink:href="#aw"/><use transform="matrix(0.05,0,0,0.05,15,0)" xlink:href="#ax"/></g><path d="M0 4l72-265h28L28 4H0" id="aB"/><use transform="matrix(0.05,0,0,0.05,0,0)" xlink:href="#aB" id="k"/><path d="M99-251c64 0 84 50 84 122C183-37 130 33 47-8c-14-7-20-23-25-40l30-5c6 39 69 39 84 7 9-19 16-44 16-74-10 22-31 35-62 35-49 0-73-33-73-83 0-54 28-83 82-83zm-1 141c31-1 51-18 51-49 0-36-14-67-51-67-34 0-49 23-49 58 0 34 15 58 49 58" id="aC"/><g id="l"><use transform="matrix(0.05,0,0,0.05,0,0)" xlink:href="#aC"/><use transform="matrix(0.05,0,0,0.05,10,0)" xlink:href="#aw"/><use transform="matrix(0.05,0,0,0.05,15,0)" xlink:href="#ax"/></g><g id="m"><use transform="matrix(0.05,0,0,0.05,0,0)" xlink:href="#ab"/><use transform="matrix(0.05,0,0,0.05,5.95,0)" xlink:href="#aa"/><use transform="matrix(0.05,0,0,0.05,15.949999999999998,0)" xlink:href="#ag"/><use transform="matrix(0.05,0,0,0.05,20.95,0)" xlink:href="#aq"/><use transform="matrix(0.05,0,0,0.05,30.950000000000003,0)" xlink:href="#ab"/><use transform="matrix(0.05,0,0,0.05,36.9,0)" xlink:href="#ae"/><use transform="matrix(0.05,0,0,0.05,46.9,0)" xlink:href="#ak"/></g><g id="n"><use transform="matrix(0.05,0,0,0.05,0,0)" xlink:href="#ao"/><use transform="matrix(0.05,0,0,0.05,12.950000000000001,0)" xlink:href="#aa"/><use transform="matrix(0.05,0,0,0.05,22.950000000000003,0)" xlink:href="#ap"/><use transform="matrix(0.05,0,0,0.05,26.900000000000002,0)" xlink:href="#ak"/><use transform="matrix(0.05,0,0,0.05,35.900000000000006,0)" xlink:href="#ad"/><use transform="matrix(0.05,0,0,0.05,39.85000000000001,0)" xlink:href="#aq"/><use transform="matrix(0.05,0,0,0.05,49.85000000000001,0)" xlink:href="#ak"/><use transform="matrix(0.05,0,0,0.05,58.85,0)" xlink:href="#an"/><use transform="matrix(0.05,0,0,0.05,70.85000000000001,0)" xlink:href="#ag"/><use transform="matrix(0.05,0,0,0.05,75.85000000000001,0)" xlink:href="#ab"/></g><path d="M115-194c55 1 70 41 70 98S169 2 115 4C84 4 66-9 55-30l1 105H24l-1-265h31l2 30c10-21 28-34 59-34zm-8 174c40 0 45-34 45-75s-6-73-45-74c-42 0-51 32-51 76 0 43 10 73 51 73" id="aD"/><g id="o"><use transform="matrix(0.05,0,0,0.05,0,0)" xlink:href="#aD"/><use transform="matrix(0.05,0,0,0.05,10,0)" xlink:href="#ab"/><use transform="matrix(0.05,0,0,0.05,15.949999999999998,0)" xlink:href="#ah"/><use transform="matrix(0.05,0,0,0.05,25.950000000000003,0)" xlink:href="#ac"/><use transform="matrix(0.05,0,0,0.05,40.9,0)" xlink:href="#aD"/><use transform="matrix(0.05,0,0,0.05,50.9,0)" xlink:href="#ag"/></g><path fill="#032f62" d="M908-845H766l-40-639h224zm-449 0H318l-41-639h224" id="aE"/><path fill="#032f62" d="M622-1349c296 4 497 117 497 404 0 282-193 424-485 431H353V0H162v-1349h460zm-15 684c195-3 320-88 320-277 0-184-129-255-328-254H353v531h254" id="aF"/><path fill="#032f62" d="M736-142h380V0H134v-142h422v-1200H267v-142h469v1342" id="aG"/><path fill="#032f62" d="M617-1102c355 0 481 238 477 599H322c5 222 84 388 301 388 144 0 244-59 284-166l158 45C1002-72 854 20 623 20c-342 0-490-220-490-568 0-346 151-554 484-554zm291 461c-18-192-90-328-289-328-194 0-287 128-295 328h584" id="aH"/><path fill="#032f62" d="M1000-272c3 95 12 159 101 161 21 0 41-3 59-7V-6c-44 10-86 16-139 16-141 2-191-84-197-217h-6C748-76 648 20 446 20c-207 0-318-120-318-322 0-266 194-348 454-354l236-4c12-191-40-305-222-305-140 0-220 47-232 172l-188-17c33-204 181-292 423-292 255 0 401 118 401 364v466zm-683-27c0 109 63 184 175 182 166-3 259-96 306-217 24-65 20-120 20-200-232 7-501-28-501 235" id="aI"/><path fill="#032f62" d="M873-819c-18-114-119-146-250-146-163 0-245 50-245 151 0 151 170 148 294 185 182 54 388 94 388 320 0 240-189 325-439 329-245 4-410-69-454-268l159-31c24 133 136 168 295 165 144-2 270-31 270-171 0-164-195-160-331-202-167-52-350-87-350-299 0-218 173-315 413-313 220 2 373 77 412 260" id="aJ"/><g id="q"><use transform="matrix(0.0078125,0,0,0.0078125,0,0)" xlink:href="#aE"/><use transform="matrix(0.0078125,0,0,0.0078125,9.6015625,0)" xlink:href="#aF"/><use transform="matrix(0.0078125,0,0,0.0078125,19.203125,0)" xlink:href="#aG"/><use transform="matrix(0.0078125,0,0,0.0078125,28.8046875,0)" xlink:href="#aH"/><use transform="matrix(0.0078125,0,0,0.0078125,38.40625,0)" xlink:href="#aI"/><use transform="matrix(0.0078125,0,0,0.0078125,48.0078125,0)" xlink:href="#aJ"/><use transform="matrix(0.0078125,0,0,0.0078125,57.609375,0)" xlink:href="#aH"/></g><path fill="#032f62" d="M162 0v-1349h919v156H353v422h668v154H353v461h769V0H162" id="aK"/><path fill="#032f62" d="M706-1102c241 0 344 136 343 381V0H868v-695c1-168-57-273-220-268-190 6-283 138-283 336V0H185c-3-360 6-732-6-1082h170c4 54 7 126 8 185h3c63-121 164-204 346-205" id="aL"/><path fill="#032f62" d="M682 16c-209 0-323-80-324-285v-671H190v-142h170l58-282h120v282h432v142H538v652c2 114 60 155 182 155 106 0 209-16 297-34v137C921-4 806 16 682 16" id="aM"/><path fill="#032f62" d="M839-1102c70 0 148 7 206 17v167c-112-18-268-36-363 15-129 69-208 203-208 395V0H294c-10-367 32-789-52-1082h171c21 75 41 161 48 250h5c67-152 152-270 373-270" id="aN"/><g id="r"><use transform="matrix(0.0078125,0,0,0.0078125,0,0)" xlink:href="#aK"/><use transform="matrix(0.0078125,0,0,0.0078125,9.6015625,0)" xlink:href="#aL"/><use transform="matrix(0.0078125,0,0,0.0078125,19.203125,0)" xlink:href="#aM"/><use transform="matrix(0.0078125,0,0,0.0078125,28.8046875,0)" xlink:href="#aH"/><use transform="matrix(0.0078125,0,0,0.0078125,38.40625,0)" xlink:href="#aN"/></g><path fill="#032f62" d="M385-1193v494h676v158H385V0H194v-1349h891v156H385" id="aO"/><path fill="#032f62" d="M648-963c-190 6-283 138-283 336V0H185v-1484h181c-2 197 6 404-9 587h3c62-120 159-205 339-205 242 0 351 135 350 381V0H868v-695c1-168-57-273-220-268" id="aP"/><path fill="#032f62" d="M745-142h380V0H143v-142h422v-798H246v-142h499v940zM545-1292v-192h200v192H545" id="aQ"/><g id="s"><use transform="matrix(0.0078125,0,0,0.0078125,0,0)" xlink:href="#aO"/><use transform="matrix(0.0078125,0,0,0.0078125,9.6015625,0)" xlink:href="#aI"/><use transform="matrix(0.0078125,0,0,0.0078125,19.203125,0)" xlink:href="#aP"/><use transform="matrix(0.0078125,0,0,0.0078125,28.8046875,0)" xlink:href="#aN"/><use transform="matrix(0.0078125,0,0,0.0078125,38.40625,0)" xlink:href="#aH"/><use transform="matrix(0.0078125,0,0,0.0078125,48.0078125,0)" xlink:href="#aL"/><use transform="matrix(0.0078125,0,0,0.0078125,57.609375,0)" xlink:href="#aP"/><use transform="matrix(0.0078125,0,0,0.0078125,67.2109375,0)" xlink:href="#aH"/><use transform="matrix(0.0078125,0,0,0.0078125,76.8125,0)" xlink:href="#aQ"/><use transform="matrix(0.0078125,0,0,0.0078125,86.4140625,0)" xlink:href="#aM"/></g><path fill="#032f62" d="M709-1193V0H519v-1193H76v-156h1076v156H709" id="aR"/><path fill="#032f62" d="M904-1102c199 0 220 177 220 381V0H956v-686c-3-114 0-215-60-264-70-33-125-4-158 71-26 56-39 140-39 252V0H531v-686c-3-114-1-215-61-264-78-41-136 24-157 84-24 69-39 159-39 259V0H105c-3-360 6-732-6-1082h149c6 50 3 123 8 175 36-100 83-195 216-195 135 0 166 79 196 196 42-105 93-196 236-196" id="aS"/><path fill="#032f62" d="M698-1104c312 3 392 244 392 558 0 315-82 566-392 566-169 0-277-65-331-184h-5c8 188 2 394 4 589H185V-858c0-76-1-156-6-224h175c6 52 9 120 10 178h4c58-122 150-202 330-200zm-49 991c225 0 255-203 255-433 0-225-32-419-253-419-236 0-285 192-285 441 0 237 53 411 283 411" id="aT"/><path fill="#032f62" d="M528 20c-247 0-343-132-343-381v-721h180v686c-4 177 45 284 224 277 194-8 279-136 279-336v-627h181c3 360-6 732 6 1082H885c-4-54-7-126-8-185h-3C809-64 714 20 528 20" id="aU"/><path fill="#032f62" d="M496 0v-299h235V0H496zm0-783v-299h235v299H496" id="aV"/><g id="t"><use transform="matrix(0.0078125,0,0,0.0078125,0,0)" xlink:href="#aR"/><use transform="matrix(0.0078125,0,0,0.0078125,9.6015625,0)" xlink:href="#aH"/><use transform="matrix(0.0078125,0,0,0.0078125,19.203125,0)" xlink:href="#aS"/><use transform="matrix(0.0078125,0,0,0.0078125,28.8046875,0)" xlink:href="#aT"/><use transform="matrix(0.0078125,0,0,0.0078125,38.40625,0)" xlink:href="#aH"/><use transform="matrix(0.0078125,0,0,0.0078125,48.0078125,0)" xlink:href="#aN"/><use transform="matrix(0.0078125,0,0,0.0078125,57.609375,0)" xlink:href="#aI"/><use transform="matrix(0.0078125,0,0,0.0078125,67.2109375,0)" xlink:href="#aM"/><use transform="matrix(0.0078125,0,0,0.0078125,76.8125,0)" xlink:href="#aU"/><use transform="matrix(0.0078125,0,0,0.0078125,86.4140625,0)" xlink:href="#aN"/><use transform="matrix(0.0078125,0,0,0.0078125,96.015625,0)" xlink:href="#aH"/><use transform="matrix(0.0078125,0,0,0.0078125,105.6171875,0)" xlink:href="#aV"/><use transform="matrix(0.0078125,0,0,0.0078125,115.21875,0)" xlink:href="#aE"/></g><path d="M377 13C195 13 58-128 58-366c0-237 139-381 325-381 89 0 159 44 201 91l-50 60c-38-41-87-70-150-70-139 0-231 114-231 297 0 185 88 301 228 301 70 0 123-31 170-82l51 58C544-25 472 13 377 13" id="aW"/><path d="M241 5C155 32 92-8 92-108v-688h91v694c3 37 15 43 45 37" id="aX"/><path d="M92 0v-543h91V0H92zm46-655c-36 0-63-25-63-59 0-37 27-59 63-59s63 22 63 59c0 34-27 59-63 59" id="aY"/><path d="M311 13C167 13 51-92 51-271c0-176 119-286 245-286 154-3 234 132 212 307H142c6 116 77 190 180 190 53 0 96-16 136-43l33 60c-48 31-106 56-180 56zM141-315h291c0-110-50-169-135-169-77 0-145 62-156 169" id="aZ"/><path d="M92 0v-543h75l8 78h3c52-51 108-92 182-92 114 0 166 74 166 213V0h-91v-332c0-102-31-145-103-145-56 0-94 28-149 83V0H92" id="ba"/><path d="M263 13c-116 0-155-72-155-181v-301H27v-69l85-5 11-152h76v152h147v74H199v303c0 67 21 105 84 105 19 0 44-7 62-14l18 68c-31 10-67 20-100 20" id="bb"/><path d="M44-228v-78h244v78H44" id="bc"/><path d="M304 13C200 13 111-29 47-96l55-63c53 55 127 91 203 91 96 0 154-48 154-120 1-113-145-134-228-176-66-33-149-81-149-188 0-113 98-195 231-195 87 0 164 37 216 91l-49 59c-45-42-99-69-167-69-83 0-137 42-137 108 0 112 144 126 226 167 83 42 151 87 151 196 0 116-96 208-249 208" id="bd"/><path d="M277 13C141 13 53-90 53-271c-5-249 231-368 388-222-8-95-4-201-5-303h91V0h-74c-4-21-4-46-11-64-43 42-100 77-165 77zm20-76c50 0 94-25 139-75v-285c-123-120-291-42-289 151 0 131 54 209 150 209" id="be"/><path d="M11 179l300-972h66L78 179H11" id="bf"/><path d="M100 0v-733h93v307h342v-307h92V0h-92v-346H193V0h-93" id="bg"/><path d="M181 0L25-733h96c41 211 82 422 120 636h4c45-218 101-426 154-636h84c53 211 111 415 155 636h5c37-216 78-424 119-636h89L699 0H588c-49-202-105-400-147-609h-4C393-402 340-202 291 0H181" id="bh"/><path d="M278 13C138 13 49-114 49-369s89-378 229-378c139 0 228 124 228 378 0 255-89 382-228 382zm0-73c83 0 139-93 139-309 0-214-56-304-139-304-84 0-140 90-140 304 0 216 56 309 140 309" id="bi"/><path d="M44 0v-54c230-201 336-347 336-473 0-84-44-145-135-145-60 0-112 37-152 85l-53-52c60-65 123-108 216-108 131 0 213 86 213 217 0 146-115 295-287 458 102-11 212-6 323-7V0H44" id="bj"/><g id="u"><use transform="matrix(0.05333333333333334,0,0,0.05333333333333334,0,0)" xlink:href="#aW"/><use transform="matrix(0.05333333333333334,0,0,0.05333333333333334,34.02666666666667,0)" xlink:href="#aX"/><use transform="matrix(0.05333333333333334,0,0,0.05333333333333334,49.226666666666674,0)" xlink:href="#aY"/><use transform="matrix(0.05333333333333334,0,0,0.05333333333333334,63.89333333333335,0)" xlink:href="#aZ"/><use transform="matrix(0.05333333333333334,0,0,0.05333333333333334,93.44000000000001,0)" xlink:href="#ba"/><use transform="matrix(0.05333333333333334,0,0,0.05333333333333334,126.02666666666667,0)" xlink:href="#bb"/><use transform="matrix(0.05333333333333334,0,0,0.05333333333333334,146.13333333333333,0)" xlink:href="#bc"/><use transform="matrix(0.05333333333333334,0,0,0.05333333333333334,163.78666666666666,0)" xlink:href="#bd"/><use transform="matrix(0.05333333333333334,0,0,0.05333333333333334,195.62666666666667,0)" xlink:href="#aY"/><use transform="matrix(0.05333333333333334,0,0,0.05333333333333334,210.29333333333332,0)" xlink:href="#be"/><use transform="matrix(0.05333333333333334,0,0,0.05333333333333334,243.35999999999996,0)" xlink:href="#aZ"/><use transform="matrix(0.05333333333333334,0,0,0.05333333333333334,272.90666666666664,0)" xlink:href="#bf"/><use transform="matrix(0.05333333333333334,0,0,0.05333333333333334,293.8133333333333,0)" xlink:href="#bg"/><use transform="matrix(0.05333333333333334,0,0,0.05333333333333334,332.63999999999993,0)" xlink:href="#bh"/><use transform="matrix(0.05333333333333334,0,0,0.05333333333333334,379.4666666666666,0)" xlink:href="#bi"/><use transform="matrix(0.05333333333333334,0,0,0.05333333333333334,409.0666666666666,0)" xlink:href="#bj"/></g><path d="M92 0v-796h91c0 111 1 223-3 330 50-50 106-91 180-91 114 0 166 74 166 213V0h-91v-332c0-102-31-145-103-145-56 0-94 28-149 83V0H92" id="bk"/><path d="M92 0v-543h75l8 99h3c50-86 117-137 212-101l-17 80c-18-7-31-9-53-9-45 0-101 32-137 125V0H92" id="bl"/><g id="v"><use transform="matrix(0.04,0,0,0.04,0,0)" xlink:href="#bd"/><use transform="matrix(0.04,0,0,0.04,23.88,0)" xlink:href="#bk"/><use transform="matrix(0.04,0,0,0.04,48.160000000000004,0)" xlink:href="#aZ"/><use transform="matrix(0.04,0,0,0.04,70.32,0)" xlink:href="#bl"/><use transform="matrix(0.04,0,0,0.04,85.83999999999999,0)" xlink:href="#bl"/><use transform="matrix(0.04,0,0,0.04,101.35999999999999,0)" xlink:href="#aY"/><use transform="matrix(0.04,0,0,0.04,112.35999999999999,0)" xlink:href="#aZ"/></g><path d="M253 0v-655H31v-78h537v78H346V0h-93" id="bm"/><path d="M217 13C126 13 58-43 58-141c0-118 103-177 334-203 0-70-23-137-112-137-63 0-120 29-163 58l-36-63c50-32 127-71 214-71 132 0 188 89 188 223V0h-75l-8-65h-3c-52 43-113 78-180 78zm26-73c53 0 96-25 149-72v-152c-183 22-245 67-245 137 0 62 42 87 96 87" id="bn"/><path d="M275 250c-133 0-225-52-225-146 0-46 30-90 81-123v-4c-29-17-50-46-50-89 0-45 33-81 61-101v-4c-36-29-71-81-71-146-2-145 144-228 280-180h189v70H429c26 25 44 65 44 112 4 144-147 228-279 170-52 42-57 131 60 124h106c126 0 189 40 189 129 0 101-106 188-274 188zm0-484c62 0 115-50 115-129s-51-127-115-127-116 47-116 127c0 79 53 129 116 129zm13 422c104 0 173-55 173-112 0-103-183-49-275-76-106 75-57 194 102 188" id="bo"/><path d="M250 13C136 13 85-61 85-199v-344h91v333c0 101 30 144 102 144 56 0 95-27 147-92v-385h91V0h-76l-7-85h-3c-51 59-105 98-180 98" id="bp"/><g id="w"><use transform="matrix(0.04,0,0,0.04,0,0)" xlink:href="#bm"/><use transform="matrix(0.04,0,0,0.04,21,0)" xlink:href="#aZ"/><use transform="matrix(0.04,0,0,0.04,42.51999999999999,0)" xlink:href="#bn"/><use transform="matrix(0.04,0,0,0.04,65.08,0)" xlink:href="#bo"/><use transform="matrix(0.04,0,0,0.04,87.60000000000001,0)" xlink:href="#bp"/><use transform="matrix(0.04,0,0,0.04,111.88,0)" xlink:href="#aZ"/></g><path d="M92 229v-772h75l8 62h3c49-40 110-76 173-76 140 0 216 110 216 277C567-22 349 94 181-50c3 91 2 185 2 279H92zm91-349C317-1 471-73 472-279c0-120-40-201-143-201-46 0-93 26-146 75v285" id="bq"/><path d="M92 0v-543h75l8 79h3c47-52 104-93 169-93 83 0 128 40 150 104 56-61 113-104 179-104 112 0 165 74 165 213V0h-91v-332c0-102-32-145-101-145-42 0-86 27-137 83V0h-91v-332c0-102-32-145-101-145-41 0-87 27-137 83V0H92" id="br"/><path d="M567-281C567-18 341 97 176-56h-3l-8 56H92v-796h91c0 106 2 214-3 316 49-43 110-77 170-77 141 0 217 110 217 276zM183-120C317-1 471-73 472-279c0-120-40-201-143-201-46 0-94 26-146 75v285" id="bs"/><g id="x"><use transform="matrix(0.031111111111111114,0,0,0.031111111111111114,0,0)" xlink:href="#bd"/><use transform="matrix(0.031111111111111114,0,0,0.031111111111111114,18.573333333333334,0)" xlink:href="#aZ"/><use transform="matrix(0.031111111111111114,0,0,0.031111111111111114,35.80888888888889,0)" xlink:href="#bq"/><use transform="matrix(0.031111111111111114,0,0,0.031111111111111114,54.50666666666667,0)" xlink:href="#bb"/><use transform="matrix(0.031111111111111114,0,0,0.031111111111111114,65.76888888888888,0)" xlink:href="#aZ"/><use transform="matrix(0.031111111111111114,0,0,0.031111111111111114,83.00444444444443,0)" xlink:href="#br"/><use transform="matrix(0.031111111111111114,0,0,0.031111111111111114,111.81333333333332,0)" xlink:href="#bs"/><use transform="matrix(0.031111111111111114,0,0,0.031111111111111114,131.04,0)" xlink:href="#aZ"/><use transform="matrix(0.031111111111111114,0,0,0.031111111111111114,148.27555555555554,0)" xlink:href="#bl"/></g><path d="M88 0v-76h163v-547H121v-58c65-12 112-29 152-52h70v657h147V0H88" id="bt"/><path d="M75 190l-22-54c62-27 99-75 100-136-42 5-77-17-78-63 0-39 32-64 69-64 48 0 77 41 77 108 0 96-56 171-146 209" id="bu"/><g id="y"><use transform="matrix(0.031111111111111114,0,0,0.031111111111111114,0,0)" xlink:href="#bt"/><use transform="matrix(0.031111111111111114,0,0,0.031111111111111114,17.26666666666667,0)" xlink:href="#bi"/><use transform="matrix(0.031111111111111114,0,0,0.031111111111111114,34.53333333333334,0)" xlink:href="#bu"/></g><path d="M279 13C144 13 45-69 45-182c0-98 68-166 135-202v-5c-54-37-99-92-99-169 0-112 86-186 201-186 125 0 201 80 201 193 0 77-54 143-98 177v5c64 37 124 92 124 192 0 107-92 190-230 190zm50-411c50-44 76-94 76-148 0-72-46-131-125-131-67 0-116 48-116 119 0 88 79 126 165 160zM281-55c84 0 141-51 141-124 0-98-90-135-194-177-59 38-100 96-100 166 0 78 65 135 153 135" id="bv"/><g id="z"><use transform="matrix(0.031111111111111114,0,0,0.031111111111111114,0,0)" xlink:href="#bj"/><use transform="matrix(0.031111111111111114,0,0,0.031111111111111114,17.26666666666667,0)" xlink:href="#bi"/><use transform="matrix(0.031111111111111114,0,0,0.031111111111111114,34.53333333333334,0)" xlink:href="#bt"/><use transform="matrix(0.031111111111111114,0,0,0.031111111111111114,51.80000000000001,0)" xlink:href="#bv"/></g><path d="M160-131c35 5 61 23 61 61C221 17 115-2 30 0v-248c76 3 177-17 177 60 0 33-19 50-47 57zm-97-11c50-1 110 9 110-42 0-47-63-36-110-37v79zm0 115c55-2 124 14 124-45 0-56-70-42-124-44v89" id="bw"/><path d="M85-194c31 0 48 13 60 33l-1-100h32l1 261h-30c-2-10 0-23-3-31C134-8 116 4 85 4 32 4 16-35 15-94c0-66 23-100 70-100zm9 24c-40 0-46 34-46 75 0 40 6 74 45 74 42 0 51-32 51-76 0-42-9-74-50-73" id="bx"/><g id="A"><use transform="matrix(0.05,0,0,0.05,0,0)" xlink:href="#bw"/><use transform="matrix(0.05,0,0,0.05,12,0)" xlink:href="#ah"/><use transform="matrix(0.05,0,0,0.05,22,0)" xlink:href="#aq"/><use transform="matrix(0.05,0,0,0.05,32,0)" xlink:href="#ae"/><use transform="matrix(0.05,0,0,0.05,42,0)" xlink:href="#bx"/><use transform="matrix(0.05,0,0,0.05,52,0)" xlink:href="#ak"/></g><path d="M27 0v-27h64v-190l-56 39v-29l58-41h29v221h61V0H27" id="by"/><g id="B"><use transform="matrix(0.05,0,0,0.05,0,0)" xlink:href="#at"/><use transform="matrix(0.05,0,0,0.05,5.95,0)" xlink:href="#by"/><use transform="matrix(0.05,0,0,0.05,15.949999999999998,0)" xlink:href="#ax"/><use transform="matrix(0.05,0,0,0.05,25.950000000000003,0)" xlink:href="#ax"/></g><path d="M18-100v-36l175-74v27L42-118l151 64v27" id="bz"/><g id="C"><use transform="matrix(0.05,0,0,0.05,0,0)" xlink:href="#bz"/><use transform="matrix(0.05,0,0,0.05,10.5,0)" xlink:href="#ar"/></g><g id="D"><use transform="matrix(0.05,0,0,0.05,0,0)" xlink:href="#al"/><use transform="matrix(0.05,0,0,0.05,10.950000000000001,0)" xlink:href="#af"/><use transform="matrix(0.05,0,0,0.05,20.950000000000003,0)" xlink:href="#ab"/><use transform="matrix(0.05,0,0,0.05,26.900000000000002,0)" xlink:href="#aa"/><use transform="matrix(0.05,0,0,0.05,36.900000000000006,0)" xlink:href="#ae"/><use transform="matrix(0.05,0,0,0.05,46.900000000000006,0)" xlink:href="#am"/><use transform="matrix(0.05,0,0,0.05,56.900000000000006,0)" xlink:href="#aa"/><use transform="matrix(0.05,0,0,0.05,66.9,0)" xlink:href="#ad"/><use transform="matrix(0.05,0,0,0.05,70.85000000000001,0)" xlink:href="#ag"/></g><g id="E"><use transform="matrix(0.05,0,0,0.05,0,0)" xlink:href="#av"/><use transform="matrix(0.05,0,0,0.05,10,0)" xlink:href="#by"/><use transform="matrix(0.05,0,0,0.05,20,0)" xlink:href="#av"/></g><path d="M205 0l-28-72H64L36 0H1l101-248h38L239 0h-34zm-38-99l-47-123c-12 45-31 82-46 123h93" id="bA"/><g id="F"><use transform="matrix(0.05,0,0,0.05,0,0)" xlink:href="#bA"/><use transform="matrix(0.05,0,0,0.05,12,0)" xlink:href="#ap"/><use transform="matrix(0.05,0,0,0.05,15.949999999999998,0)" xlink:href="#aa"/><use transform="matrix(0.05,0,0,0.05,25.950000000000003,0)" xlink:href="#ab"/><use transform="matrix(0.05,0,0,0.05,31.899999999999995,0)" xlink:href="#ag"/></g><path d="M109-170H84l-4-78h32zm-65 0H19l-4-78h33" id="bB"/><path d="M137-103V0h-34v-103L8-248h37l75 118 75-118h37" id="bC"/><g id="G"><use transform="matrix(0.05,0,0,0.05,0,0)" xlink:href="#bB"/><use transform="matrix(0.05,0,0,0.05,6.3500000000000005,0)" xlink:href="#bC"/><use transform="matrix(0.05,0,0,0.05,16.7,0)" xlink:href="#ah"/><use transform="matrix(0.05,0,0,0.05,26.700000000000003,0)" xlink:href="#aq"/></g><g id="H"><use transform="matrix(0.05,0,0,0.05,0,0)" xlink:href="#aa"/><use transform="matrix(0.05,0,0,0.05,10,0)" xlink:href="#ae"/><use transform="matrix(0.05,0,0,0.05,20,0)" xlink:href="#ag"/><use transform="matrix(0.05,0,0,0.05,25,0)" xlink:href="#aa"/><use transform="matrix(0.05,0,0,0.05,35,0)" xlink:href="#ab"/><use transform="matrix(0.05,0,0,0.05,40.95,0)" xlink:href="#aa"/><use transform="matrix(0.05,0,0,0.05,50.95,0)" xlink:href="#bx"/></g><use transform="matrix(0.05,0,0,0.05,0,0)" xlink:href="#bB" id="I"/><path d="M118-107v75H92v-75H18v-26h74v-75h26v75h74v26h-74" id="bD"/><use transform="matrix(0.05,0,0,0.05,0,0)" xlink:href="#bD" id="J"/><g id="K"><use transform="matrix(0.05,0,0,0.05,0,0)" xlink:href="#al"/><use transform="matrix(0.05,0,0,0.05,10.950000000000001,0)" xlink:href="#af"/><use transform="matrix(0.05,0,0,0.05,20.950000000000003,0)" xlink:href="#ab"/><use transform="matrix(0.05,0,0,0.05,26.900000000000002,0)" xlink:href="#aa"/><use transform="matrix(0.05,0,0,0.05,36.900000000000006,0)" xlink:href="#ae"/><use transform="matrix(0.05,0,0,0.05,46.900000000000006,0)" xlink:href="#am"/><use transform="matrix(0.05,0,0,0.05,56.900000000000006,0)" xlink:href="#aa"/><use transform="matrix(0.05,0,0,0.05,66.9,0)" xlink:href="#ad"/><use transform="matrix(0.05,0,0,0.05,70.85000000000001,0)" xlink:href="#ag"/><use transform="matrix(0.05,0,0,0.05,75.85000000000001,0)" xlink:href="#an"/><use transform="matrix(0.05,0,0,0.05,87.85000000000001,0)" xlink:href="#ag"/><use transform="matrix(0.05,0,0,0.05,92.85000000000001,0)" xlink:href="#ab"/></g><path d="M30 0v-248h187v28H63v79h144v27H63v87h162V0H30" id="bE"/><path d="M179-190L93 31C79 59 56 82 12 73V49c39 6 53-20 64-50L1-190h34L92-34l54-156h33" id="bF"/><g id="L"><use transform="matrix(0.05,0,0,0.05,0,0)" xlink:href="#bE"/><use transform="matrix(0.05,0,0,0.05,12,0)" xlink:href="#ae"/><use transform="matrix(0.05,0,0,0.05,22,0)" xlink:href="#ag"/><use transform="matrix(0.05,0,0,0.05,27,0)" xlink:href="#ab"/><use transform="matrix(0.05,0,0,0.05,32.95,0)" xlink:href="#bF"/></g><g id="M"><use transform="matrix(0.05,0,0,0.05,0,0)" xlink:href="#ac"/><use transform="matrix(0.05,0,0,0.05,14.950000000000001,0)" xlink:href="#aq"/><use transform="matrix(0.05,0,0,0.05,24.950000000000003,0)" xlink:href="#ak"/><use transform="matrix(0.05,0,0,0.05,33.95,0)" xlink:href="#ag"/></g><path d="M177-190C167-65 218 103 67 71c-23-6-38-20-44-43l32-5c15 47 100 32 89-28v-30C133-14 115 1 83 1 29 1 15-40 15-95c0-56 16-97 71-98 29-1 48 16 59 35 1-10 0-23 2-32h30zM94-22c36 0 50-32 50-73 0-42-14-75-50-75-39 0-46 34-46 75s6 73 46 73" id="bG"/><g id="N"><use transform="matrix(0.05,0,0,0.05,0,0)" xlink:href="#ab"/><use transform="matrix(0.05,0,0,0.05,5.95,0)" xlink:href="#af"/><use transform="matrix(0.05,0,0,0.05,15.949999999999998,0)" xlink:href="#ae"/><use transform="matrix(0.05,0,0,0.05,25.950000000000003,0)" xlink:href="#bG"/><use transform="matrix(0.05,0,0,0.05,35.95,0)" xlink:href="#aa"/></g><path d="M101-234c-31-9-42 10-38 44h38v23H63V0H32v-167H5v-23h27c-7-52 17-82 69-68v24" id="bH"/><g id="O"><use transform="matrix(0.05,0,0,0.05,0,0)" xlink:href="#bH"/><use transform="matrix(0.05,0,0,0.05,5,0)" xlink:href="#ab"/><use transform="matrix(0.05,0,0,0.05,10.95,0)" xlink:href="#ah"/><use transform="matrix(0.05,0,0,0.05,20.95,0)" xlink:href="#ac"/></g><g id="P"><use transform="matrix(0.05,0,0,0.05,0,0)" xlink:href="#at"/><use transform="matrix(0.05,0,0,0.05,5.95,0)" xlink:href="#by"/><use transform="matrix(0.05,0,0,0.05,15.949999999999998,0)" xlink:href="#ax"/><use transform="matrix(0.05,0,0,0.05,25.950000000000003,0)" xlink:href="#ax"/></g><g id="Q"><use transform="matrix(0.05,0,0,0.05,0,0)" xlink:href="#ag"/><use transform="matrix(0.05,0,0,0.05,5,0)" xlink:href="#ah"/></g><g id="R"><use transform="matrix(0.05,0,0,0.05,0,0)" xlink:href="#af"/><use transform="matrix(0.05,0,0,0.05,10,0)" xlink:href="#ap"/><use transform="matrix(0.05,0,0,0.05,13.949999999999998,0)" xlink:href="#aa"/><use transform="matrix(0.05,0,0,0.05,23.95,0)" xlink:href="#ab"/><use transform="matrix(0.05,0,0,0.05,29.899999999999995,0)" xlink:href="#ag"/></g><g id="S"><use transform="matrix(0.05,0,0,0.05,0,0)" xlink:href="#bB"/><use transform="matrix(0.05,0,0,0.05,6.3500000000000005,0)" xlink:href="#al"/><use transform="matrix(0.05,0,0,0.05,17.3,0)" xlink:href="#af"/><use transform="matrix(0.05,0,0,0.05,27.3,0)" xlink:href="#ab"/><use transform="matrix(0.05,0,0,0.05,33.25,0)" xlink:href="#aa"/><use transform="matrix(0.05,0,0,0.05,43.25,0)" xlink:href="#ae"/><use transform="matrix(0.05,0,0,0.05,53.25,0)" xlink:href="#am"/><use transform="matrix(0.05,0,0,0.05,63.25,0)" xlink:href="#aa"/><use transform="matrix(0.05,0,0,0.05,73.25,0)" xlink:href="#ad"/><use transform="matrix(0.05,0,0,0.05,77.2,0)" xlink:href="#ag"/></g><g id="T"><use transform="matrix(0.05,0,0,0.05,0,0)" xlink:href="#ag"/><use transform="matrix(0.05,0,0,0.05,5,0)" xlink:href="#aa"/><use transform="matrix(0.05,0,0,0.05,15,0)" xlink:href="#ac"/><use transform="matrix(0.05,0,0,0.05,29.950000000000003,0)" xlink:href="#aD"/><use transform="matrix(0.05,0,0,0.05,39.95,0)" xlink:href="#aq"/><use transform="matrix(0.05,0,0,0.05,49.95,0)" xlink:href="#ab"/><use transform="matrix(0.05,0,0,0.05,55.900000000000006,0)" xlink:href="#af"/><use transform="matrix(0.05,0,0,0.05,65.9,0)" xlink:href="#ag"/><use transform="matrix(0.05,0,0,0.05,70.9,0)" xlink:href="#aq"/><use transform="matrix(0.05,0,0,0.05,80.9,0)" xlink:href="#ab"/><use transform="matrix(0.05,0,0,0.05,86.85000000000001,0)" xlink:href="#aa"/></g><g id="U"><use transform="matrix(0.05,0,0,0.05,0,0)" xlink:href="#ad"/><use transform="matrix(0.05,0,0,0.05,3.95,0)" xlink:href="#ak"/></g><g id="V"><use transform="matrix(0.05,0,0,0.05,0,0)" xlink:href="#ao"/><use transform="matrix(0.05,0,0,0.05,12.950000000000001,0)" xlink:href="#aa"/><use transform="matrix(0.05,0,0,0.05,22.950000000000003,0)" xlink:href="#ap"/><use transform="matrix(0.05,0,0,0.05,26.900000000000002,0)" xlink:href="#ak"/><use transform="matrix(0.05,0,0,0.05,35.900000000000006,0)" xlink:href="#ad"/><use transform="matrix(0.05,0,0,0.05,39.85000000000001,0)" xlink:href="#aq"/><use transform="matrix(0.05,0,0,0.05,49.85000000000001,0)" xlink:href="#ak"/><use transform="matrix(0.05,0,0,0.05,58.85,0)" xlink:href="#an"/><use transform="matrix(0.05,0,0,0.05,70.85000000000001,0)" xlink:href="#ag"/><use transform="matrix(0.05,0,0,0.05,75.85000000000001,0)" xlink:href="#ab"/></g><path d="M190 0L58-211 59 0H30v-248h39L202-35l-2-213h31V0h-41" id="bI"/><g id="X"><use transform="matrix(0.05,0,0,0.05,0,0)" xlink:href="#bI"/><use transform="matrix(0.05,0,0,0.05,12.950000000000001,0)" xlink:href="#ah"/></g><g id="Y"><use transform="matrix(0.05,0,0,0.05,0,0)" xlink:href="#bC"/><use transform="matrix(0.05,0,0,0.05,10.35,0)" xlink:href="#aa"/><use transform="matrix(0.05,0,0,0.05,20.35,0)" xlink:href="#ak"/></g></defs></g></svg>